<svg version="1.1" id="Uploaded to svgrepo.com" xmlns="http://www.w3.org/2000/svg" xmlns:xlink="http://www.w3.org/1999/xlink" x="0px" y="0px"
	 width="32px" height="32px" viewBox="0 0 32 32" style="enable-background:new 0 0 32 32;" xml:space="preserve">
<style type="text/css">
	.feather_een{fill:#0B1719;}
</style>
<path class="feather_een" d="M27,10c0.552,0,1-0.448,1-1V8c0-0.552-0.448-1-1-1h-1V6c0-1.657-1.343-3-3-3H9C7.343,3,6,4.343,6,6v2
	H4.5C4.224,8,4,8.224,4,8.5C4,8.776,4.224,9,4.5,9H6v1H4.5C4.224,10,4,10.224,4,10.5C4,10.776,4.224,11,4.5,11H6v10H4.5
	C4.224,21,4,21.224,4,21.5C4,21.776,4.224,22,4.5,22H6v1H4.5C4.224,23,4,23.224,4,23.5C4,23.776,4.224,24,4.5,24H6v2
	c0,1.657,1.343,3,3,3h14c1.657,0,3-1.343,3-3v-4h1c0.552,0,1-0.448,1-1v-1c0-0.552-0.448-1-1-1h-1v-1h1c0.552,0,1-0.448,1-1v-1
	c0-0.552-0.448-1-1-1h-1v-1h1c0.552,0,1-0.448,1-1v-1c0-0.552-0.448-1-1-1h-1v-1H27z M26,8h1v1h-1V8z M25,26c0,1.105-0.895,2-2,2H9
	c-1.105,0-2-0.895-2-2V6c0-1.105,0.895-2,2-2h14c1.105,0,2,0.895,2,2V26z M27,20v1h-1v-1H27z M27,16v1h-1v-1H27z M27,12v1h-1v-1H27z
	 M18.17,16.062c0.639-0.672,0.977-1.635,0.768-2.676c-0.236-1.179-1.215-2.134-2.399-2.34C14.645,10.717,13,12.167,13,14
	c0,0.801,0.319,1.524,0.83,2.062c-1.122,0.56-1.83,1.706-1.83,2.959V21c0,0.552,0.448,1,1,1h6c0.552,0,1-0.448,1-1v-1.978
	C20,17.768,19.291,16.622,18.17,16.062z M16,12c1.103,0,2,0.897,2,2c0,1.103-0.897,2-2,2s-2-0.897-2-2C14,12.897,14.897,12,16,12z
	 M19,21h-6v-1.585c0-0.986,0.48-1.903,1.288-2.464l0.463-0.231C15.132,16.896,15.553,17,16,17s0.868-0.104,1.249-0.28l0.463,0.231
	C18.52,17.512,19,18.429,19,19.415V21z"/>
</svg>