<?xml version="1.0" encoding="iso-8859-1"?>
<!-- Generator: Adobe Illustrator 19.0.0, SVG Export Plug-In . SVG Version: 6.00 Build 0)  -->
<svg version="1.1" id="Layer_1" xmlns="http://www.w3.org/2000/svg" xmlns:xlink="http://www.w3.org/1999/xlink" x="0px" y="0px"
	 viewBox="0 0 486 486" style="enable-background:new 0 0 486 486;" xml:space="preserve">
<g>
	<g>
		<g>
			<path d="M60.5,0v486h365V0H60.5z M410.5,471h-335V15h335V471z"/>
			<rect x="239" y="95" width="100" height="15"/>
			<rect x="239" y="135" width="140" height="15"/>
			<rect x="239" y="215" width="100" height="15"/>
			<rect x="239" y="255" width="140" height="15"/>
			<rect x="239" y="335" width="100" height="15"/>
			<rect x="239" y="375" width="140" height="15"/>
			<polygon points="189,150 161.5,150 161.5,105 189,105 189,90 119,90 119,105 146.5,105 146.5,150 119,150 119,165 189,165 			"/>
			<path d="M199,270h-17.5v-45H199v-15h-90v15h17.5v45H109v15h90V270z M166.5,270h-25v-45h25V270z"/>
			<path d="M209,385h-12.5v-45H209v-15H109v15h12.5v45H109v15h100V385z M151.5,385h-15v-45h15V385z M181.5,385h-15v-45h15V385z"/>
		</g>
	</g>
</g>
<g>
</g>
<g>
</g>
<g>
</g>
<g>
</g>
<g>
</g>
<g>
</g>
<g>
</g>
<g>
</g>
<g>
</g>
<g>
</g>
<g>
</g>
<g>
</g>
<g>
</g>
<g>
</g>
<g>
</g>
</svg>
