<?xml version="1.0" encoding="UTF-8"?>
<svg xmlns="http://www.w3.org/2000/svg" xmlns:xlink="http://www.w3.org/1999/xlink" viewBox="0 0 50 50" width="50px" height="50px">
<g id="surface359875935">
<path style=" stroke:none;fill-rule:nonzero;fill:rgb(99.607843%,63.529414%,16.862746%);fill-opacity:1;" d="M 25 5 C 13.953125 5 5 13.953125 5 25 C 5 28.753906 6.054688 32.25 7.851562 35.25 L 5.179688 45 L 15.136719 42.386719 C 18.050781 44.042969 21.410156 45 25 45 C 36.046875 45 45 36.046875 45 25 C 45 13.953125 36.046875 5 25 5 Z M 18.152344 15.671875 C 18.480469 15.671875 18.8125 15.667969 19.101562 15.683594 C 19.457031 15.691406 19.847656 15.71875 20.21875 16.539062 C 20.660156 17.515625 21.621094 19.964844 21.746094 20.214844 C 21.867188 20.464844 21.957031 20.753906 21.785156 21.082031 C 21.621094 21.414062 21.535156 21.617188 21.296875 21.910156 C 21.046875 22.199219 20.773438 22.554688 20.550781 22.769531 C 20.300781 23.019531 20.046875 23.289062 20.332031 23.785156 C 20.617188 24.28125 21.613281 25.902344 23.085938 27.214844 C 24.976562 28.902344 26.574219 29.421875 27.070312 29.671875 C 27.566406 29.917969 27.855469 29.878906 28.140625 29.546875 C 28.4375 29.222656 29.378906 28.105469 29.714844 27.609375 C 30.039062 27.113281 30.371094 27.199219 30.820312 27.363281 C 31.277344 27.527344 33.710938 28.726562 34.207031 28.972656 C 34.707031 29.222656 35.03125 29.347656 35.15625 29.546875 C 35.285156 29.753906 35.285156 30.746094 34.871094 31.902344 C 34.460938 33.058594 32.441406 34.175781 31.53125 34.253906 C 30.617188 34.339844 29.765625 34.664062 25.585938 33.019531 C 20.546875 31.035156 17.367188 25.875 17.117188 25.539062 C 16.871094 25.214844 15.101562 22.855469 15.101562 20.421875 C 15.101562 17.980469 16.382812 16.785156 16.828125 16.289062 C 17.285156 15.792969 17.820312 15.671875 18.152344 15.671875 Z M 18.152344 15.671875 "/>
</g>
</svg>
